#!OML:ASF I:\Actors\actors\Patient Classification 2\Patient 1\Session 1\actor1.ASF
:FULLY-SPECIFIED
:DEGREES
358
root -0.665754 18.6587 6.14298 1.12353 -3.30097 -3.33363
lowerback 0.659393 0.837662 1.06659
upperback -1.21251 1.15039 1.22595
thorax -1.61556 0.569687 0.634441
lowerneck -11.0284 -2.60018 -2.32355
upperneck 21.9361 -3.78926 2.70554
head 8.75703 -1.70112 0.895316
rclavicle -1.66917e-014 -1.0138e-014
rhumerus -45.5266 -7.9328 -81.8887
rradius 47.1532
rwrist 9.9192
rhand -5.26805 -36.0635
rfingers 7.12502
rthumb 20.5358 -64.9973
lclavicle -1.66917e-014 -1.0138e-014
lhumerus -40.8569 0.749617 89.6035
lradius 44.0379
lwrist -0.616621
lhand -10.1925 -28.8871
lfingers 7.12502
lthumb 15.7982 0.488205
rfemur 0 0 0
rtibia 0
rfoot 0 0
rtoes 0
lfemur -2.60922 -7.24152 -11.7063
ltibia 22.1822
lfoot -25.047 15.0133
ltoes -55.1321
359
root -0.664669 18.6589 6.14611 1.16057 -3.25619 -3.33738
lowerback 0.59516 0.823956 1.07708
upperback -1.24091 1.13144 1.224
thorax -1.60831 0.560077 0.627728
lowerneck -11.0285 -2.61308 -2.37697
upperneck 22.0199 -3.79974 2.70866
head 8.7872 -1.70961 0.904107
rclavicle 6.93883e-015 -1.04362e-015
rhumerus -45.3605 -7.69374 -82.0371
rradius 47.1679
rwrist 9.99509
rhand -6.06887 -35.2486
rfingers 7.12502
rthumb 19.7661 -64.2635
lclavicle 6.93883e-015 -1.04362e-015
lhumerus -40.8023 0.609419 89.7923
lradius 44.069
lwrist -0.572328
lhand -10.1647 -28.9721
lfingers 7.12502
lthumb 15.825 0.401151
rfemur 0 0 0
rtibia 0
rfoot 0 0
rtoes 0
lfemur -2.66081 -7.2749 -11.7002
ltibia 22.1986
lfoot -25.0555 15.0045
ltoes -55.1349
360
root -0.665129 18.6591 6.14944 1.20172 -3.23555 -3.34498
lowerback 0.536098 0.816653 1.07803
upperback -1.27534 1.12107 1.21929
thorax -1.61031 0.554815 0.623203
lowerneck -11.0738 -2.63796 -2.55855
upperneck 22.1828 -3.84991 2.91552
head 8.86097 -1.72532 0.998422
rclavicle -9.47644e-015 -6.01324e-015
rhumerus -45.2291 -7.39777 -82.24
rradius 47.1491
rwrist 10.0555
rhand -7.84255 -33.7012
rfingers 7.12502
rthumb 18.0603 -62.8827
lclavicle -9.47644e-015 -6.01324e-015
lhumerus -40.772 0.493222 89.9656
lradius 44.0209
lwrist -0.621198
lhand -10.1945 -29.1268
lfingers 7.12502
lthumb 15.7963 0.248744
rfemur 0 0 0
rtibia 0
rfoot 0 0
rtoes 0
lfemur -2.70836 -7.33824 -11.6946
ltibia 22.2171
lfoot -25.0707 15.0632
ltoes -55.1672
361
root -0.665355 18.6598 6.15378 1.23247 -3.21273 -3.35368
lowerback 0.490634 0.816855 1.09498
upperback -1.31599 1.12114 1.20367
thorax -1.62585 0.554436 0.598082
lowerneck -11.1108 -2.67363 -2.65465
upperneck 22.3447 -3.91816 3.05746
head 8.93067 -1.7492 1.0547
rclavicle -1.62134e-014 4.17448e-015
rhumerus -45.0645 -7.16297 -82.4444
rradius 46.9544
rwrist 10.2245
rhand -8.03433 -33.1773
rfingers 7.12502
rthumb 17.8758 -62.3758
lclavicle -1.62134e-014 4.17448e-015
lhumerus -40.7847 0.277556 90.186
lradius 43.963
lwrist -0.615836
lhand -10.3247 -29.2768
lfingers 7.12502
lthumb 15.6709 0.108546
rfemur 0 0 0
rtibia 0
rfoot 0 0
rtoes 0
lfemur -2.74625 -7.37727 -11.6904
ltibia 22.2424
lfoot -25.0776 15.1067
ltoes -55.2115
362
root -0.665136 18.6606 6.15746 1.25861 -3.18241 -3.37059
lowerback 0.470244 0.818588 1.11235
upperback -1.36048 1.12398 1.19961
thorax -1.65963 0.555445 0.584096
lowerneck -11.1039 -2.68233 -2.64633
upperneck 22.4053 -3.93615 3.06521
head 8.95083 -1.75582 1.05404
rclavicle -2.94155e-014 -8.39865e-015
rhumerus -44.8763 -6.94662 -82.6321
rradius 46.629
rwrist 10.4911
rhand -6.50378 -33.5633
rfingers 7.12502
rthumb 19.348 -62.6208
lclavicle -2.94155e-014 -8.39865e-015
lhumerus -40.8005 0.108904 90.3999
lradius 43.8257
lwrist -0.702152
lhand -10.4356 -29.446
lfingers 7.12502
lthumb 15.5642 -0.0522852
rfemur 0 0 0
rtibia 0
rfoot 0 0
rtoes 0
lfemur -2.77839 -7.37184 -11.6705
ltibia 22.2644
lfoot -25.0777 15.1
ltoes -55.2855
363
root -0.664819 18.6611 6.1604 1.26596 -3.14251 -3.37806
lowerback 0.489947 0.805377 1.10479
upperback -1.40671 1.10748 1.2022
thorax -1.71829 0.547086 0.590614
lowerneck -11.0873 -2.67358 -2.67765
upperneck 22.4495 -3.9345 3.12917
head 8.96491 -1.75091 1.08147
rclavicle -4.53478e-016 -5.26779e-015
rhumerus -44.7553 -6.69375 -82.8554
rradius 46.3184
rwrist 10.7256
rhand -5.98761 -33.7124
rfingers 7.12502
rthumb 19.8443 -62.7194
lclavicle -4.53478e-016 -5.26779e-015
lhumerus -40.8198 0.125634 90.5387
lradius 43.5395
lwrist -0.997857
lhand -10.5135 -29.5785
lfingers 7.12502
lthumb 15.4891 -0.178918
rfemur 0 0 0
rtibia 0
rfoot 0 0
rtoes 0
lfemur -2.78502 -7.35592 -11.6536
ltibia 22.2708
lfoot -25.0832 15.0391
ltoes -55.3228
364
root -0.664701 18.6599 6.16426 1.25549 -3.09869 -3.37179
lowerback 0.502562 0.787868 1.09245
upperback -1.43857 1.0847 1.19868
thorax -1.75816 0.535688 0.593927
lowerneck -11.0824 -2.66964 -2.69746
upperneck 22.5136 -3.93802 3.1742
head 8.98757 -1.74919 1.09984
rclavicle 1.99515e-014 2.45002e-014
rhumerus -44.6978 -6.51092 -83.0691
rradius 46.0308
rwrist 10.9514
rhand -6.38502 -33.423
rfingers 7.12502
rthumb 19.4622 -62.469
lclavicle 1.99515e-014 2.45002e-014
lhumerus -40.8553 0.198671 90.651
lradius 43.1675
lwrist -1.36093
lhand -10.6071 -29.6955
lfingers 7.12502
lthumb 15.3989 -0.288986
rfemur 0 0 0
rtibia 0
rfoot 0 0
rtoes 0
lfemur -2.77455 -7.31033 -11.6451
ltibia 22.2681
lfoot -25.0606 14.9327
ltoes -55.2941
365
root -0.664868 18.659 6.16811 1.26333 -3.07316 -3.36488
lowerback 0.477934 0.76915 1.08577
upperback -1.45405 1.05938 1.19679
thorax -1.76022 0.523096 0.596473
lowerneck -11.0979 -2.65554 -2.66013
upperneck 22.5551 -3.91316 3.11492
head 9.00192 -1.74018 1.07602
rclavicle 4.20399e-015 -1.93815e-014
rhumerus -44.6159 -6.32309 -83.2871
rradius 45.7112
rwrist 11.2693
rhand -7.05544 -33.0288
rfingers 7.12502
rthumb 18.8175 -62.1386
lclavicle 4.20399e-015 -1.93815e-014
lhumerus -40.8809 0.260219 90.7597
lradius 42.768
lwrist -1.70691
lhand -10.6437 -29.9027
lfingers 7.12502
lthumb 15.3637 -0.493473
rfemur 0 0 0
rtibia 0
rfoot 0 0
rtoes 0
lfemur -2.78246 -7.29749 -11.6451
ltibia 22.2666
lfoot -25.0446 14.8944
ltoes -55.2382
366
root -0.664597 18.6593 6.17089 1.28612 -3.07819 -3.35021
lowerback 0.469763 0.753253 1.08828
upperback -1.48053 1.03827 1.1826
thorax -1.78243 0.512303 0.580874
lowerneck -11.1099 -2.63373 -2.6253
upperneck 22.5748 -3.88232 3.08078
head 9.00851 -1.72617 1.06186
rclavicle -5.12181e-015 2.88238e-015
rhumerus -44.5645 -6.06052 -83.567
rradius 45.3845
rwrist 11.6188
rhand -8.72873 -32.6055
rfingers 7.12502
rthumb 17.2075 -61.8636
lclavicle -5.12181e-015 2.88238e-015
lhumerus -40.9382 0.313131 90.8386
lradius 42.3932
lwrist -2.04152
lhand -10.6162 -30.0784
lfingers 7.12502
lthumb 15.3902 -0.671222
rfemur 0 0 0
rtibia 0
rfoot 0 0
rtoes 0
lfemur -2.80095 -7.275 -11.6613
ltibia 22.2638
lfoot -25.0143 14.9293
ltoes -55.3306
367
root -0.664029 18.6584 6.17314 1.29171 -3.08901 -3.36198
lowerback 0.476985 0.755146 1.13122
upperback -1.5059 1.04173 1.16763
thorax -1.81151 0.513164 0.541132
lowerneck -11.0871 -2.62943 -2.58924
upperneck 22.5661 -3.87968 3.06241
head 9 -1.72417 1.05011
rclavicle 7.26962e-015 -1.78906e-015
rhumerus -44.5854 -5.84269 -83.8439
rradius 45.076
rwrist 11.9061
rhand -7.41234 -32.6914
rfingers 7.12502
rthumb 18.4742 -61.8341
lclavicle 7.26962e-015 -1.78906e-015
lhumerus -41.0316 0.356422 90.9114
lradius 42.017
lwrist -2.36347
lhand -10.6008 -30.1945
lfingers 7.12502
lthumb 15.4051 -0.788434
rfemur 0 0 0
rtibia 0
rfoot 0 0
rtoes 0
lfemur -2.7962 -7.24592 -11.651
ltibia 22.2576
lfoot -24.9829 14.9607
ltoes -55.4649
